{
  "accessors": [
    {
      "bufferView": 2,
      "componentType": 5126,
      "count": 2877,
      "max": [
        -0.13901834189891815,
        0.10259437561035156,
        0.10259437561035156
      ],
      "min": [
        -0.3011355698108673,
        -0.10259437561035156,
        -0.10259437561035156
      ],
      "type": "VEC3"
    },
    {
      "bufferView": 2,
      "byteOffset": 34524,
      "componentType": 5126,
      "count": 2877,
      "type": "VEC3"
    },
    {
      "bufferView": 3,
      "componentType": 5126,
      "count": 2877,
      "type": "VEC4"
    },
    {
      "bufferView": 1,
      "componentType": 5126,
      "count": 2877,
      "type": "VEC2"
    },
    {
      "bufferView": 1,
      "byteOffset": 23016,
      "componentType": 5126,
      "count": 2877,
      "type": "VEC2"
    },
    {
      "bufferView": 1,
      "byteOffset": 46032,
      "componentType": 5126,
      "count": 2877,
      "type": "VEC2"
    },
    {
      "bufferView": 0,
      "componentType": 5125,
      "count": 13098,
      "type": "SCALAR"
    },
    {
      "bufferView": 2,
      "byteOffset": 69048,
      "componentType": 5126,
      "count": 805,
      "max": [
        -0.3007142245769501,
        0.10600873082876205,
        0.10600873082876205
      ],
      "min": [
        -0.38223594427108765,
        -0.10600873082876205,
        -0.10600873082876205
      ],
      "type": "VEC3"
    },
    {
      "bufferView": 2,
      "byteOffset": 78708,
      "componentType": 5126,
      "count": 805,
      "type": "VEC3"
    },
    {
      "bufferView": 3,
      "byteOffset": 46032,
      "componentType": 5126,
      "count": 805,
      "type": "VEC4"
    },
    {
      "bufferView": 1,
      "byteOffset": 69048,
      "componentType": 5126,
      "count": 805,
      "type": "VEC2"
    },
    {
      "bufferView": 1,
      "byteOffset": 75488,
      "componentType": 5126,
      "count": 805,
      "type": "VEC2"
    },
    {
      "bufferView": 1,
      "byteOffset": 81928,
      "componentType": 5126,
      "count": 805,
      "type": "VEC2"
    },
    {
      "bufferView": 0,
      "byteOffset": 52392,
      "componentType": 5125,
      "count": 2718,
      "type": "SCALAR"
    },
    {
      "bufferView": 2,
      "byteOffset": 88368,
      "componentType": 5126,
      "count": 5087,
      "max": [
        0.3580256700515747,
        0.08029446750879288,
        0.08029446005821228
      ],
      "min": [
        -0.13901834189891815,
        -0.08029299974441528,
        -0.08029446005821228
      ],
      "type": "VEC3"
    },
    {
      "bufferView": 2,
      "byteOffset": 149412,
      "componentType": 5126,
      "count": 5087,
      "type": "VEC3"
    },
    {
      "bufferView": 3,
      "byteOffset": 58912,
      "componentType": 5126,
      "count": 5087,
      "type": "VEC4"
    },
    {
      "bufferView": 1,
      "byteOffset": 88368,
      "componentType": 5126,
      "count": 5087,
      "type": "VEC2"
    },
    {
      "bufferView": 1,
      "byteOffset": 129064,
      "componentType": 5126,
      "count": 5087,
      "type": "VEC2"
    },
    {
      "bufferView": 1,
      "byteOffset": 169760,
      "componentType": 5126,
      "count": 5087,
      "type": "VEC2"
    },
    {
      "bufferView": 0,
      "byteOffset": 63264,
      "componentType": 5125,
      "count": 19728,
      "type": "SCALAR"
    },
    {
      "bufferView": 2,
      "byteOffset": 210456,
      "componentType": 5126,
      "count": 1096,
      "max": [
        0.4589982032775879,
        0.0761612057685852,
        0.07826246321201324
      ],
      "min": [
        0.3580256700515747,
        -0.0761612057685852,
        -0.07826246321201324
      ],
      "type": "VEC3"
    },
    {
      "bufferView": 2,
      "byteOffset": 223608,
      "componentType": 5126,
      "count": 1096,
      "type": "VEC3"
    },
    {
      "bufferView": 3,
      "byteOffset": 140304,
      "componentType": 5126,
      "count": 1096,
      "type": "VEC4"
    },
    {
      "bufferView": 1,
      "byteOffset": 210456,
      "componentType": 5126,
      "count": 1096,
      "type": "VEC2"
    },
    {
      "bufferView": 1,
      "byteOffset": 219224,
      "componentType": 5126,
      "count": 1096,
      "type": "VEC2"
    },
    {
      "bufferView": 1,
      "byteOffset": 227992,
      "componentType": 5126,
      "count": 1096,
      "type": "VEC2"
    },
    {
      "bufferView": 0,
      "byteOffset": 142176,
      "componentType": 5125,
      "count": 4938,
      "type": "SCALAR"
    },
    {
      "bufferView": 2,
      "byteOffset": 236760,
      "componentType": 5126,
      "count": 429,
      "max": [
        0.2259085327386856,
        0.009415100328624249,
        0.0978115126490593
      ],
      "min": [
        -0.09990629553794861,
        -0.009415116161108017,
        0.07118767499923706
      ],
      "type": "VEC3"
    },
    {
      "bufferView": 2,
      "byteOffset": 241908,
      "componentType": 5126,
      "count": 429,
      "type": "VEC3"
    },
    {
      "bufferView": 3,
      "byteOffset": 157840,
      "componentType": 5126,
      "count": 429,
      "type": "VEC4"
    },
    {
      "bufferView": 1,
      "byteOffset": 236760,
      "componentType": 5126,
      "count": 429,
      "type": "VEC2"
    },
    {
      "bufferView": 1,
      "byteOffset": 240192,
      "componentType": 5126,
      "count": 429,
      "type": "VEC2"
    },
    {
      "bufferView": 1,
      "byteOffset": 243624,
      "componentType": 5126,
      "count": 429,
      "type": "VEC2"
    },
    {
      "bufferView": 0,
      "byteOffset": 161928,
      "componentType": 5125,
      "count": 1524,
      "type": "SCALAR"
    },
    {
      "bufferView": 2,
      "byteOffset": 247056,
      "componentType": 5126,
      "count": 795,
      "max": [
        -0.38223594427108765,
        0.09324654191732407,
        0.09324653446674347
      ],
      "min": [
        -0.4442443549633026,
        -0.09324653446674347,
        -0.09324653446674347
      ],
      "type": "VEC3"
    },
    {
      "bufferView": 2,
      "byteOffset": 256596,
      "componentType": 5126,
      "count": 795,
      "type": "VEC3"
    },
    {
      "bufferView": 3,
      "byteOffset": 164704,
      "componentType": 5126,
      "count": 795,
      "type": "VEC4"
    },
    {
      "bufferView": 1,
      "byteOffset": 247056,
      "componentType": 5126,
      "count": 795,
      "type": "VEC2"
    },
    {
      "bufferView": 1,
      "byteOffset": 253416,
      "componentType": 5126,
      "count": 795,
      "type": "VEC2"
    },
    {
      "bufferView": 1,
      "byteOffset": 259776,
      "componentType": 5126,
      "count": 795,
      "type": "VEC2"
    },
    {
      "bufferView": 0,
      "byteOffset": 168024,
      "componentType": 5125,
      "count": 2298,
      "type": "SCALAR"
    },
    {
      "bufferView": 2,
      "byteOffset": 266136,
      "componentType": 5126,
      "count": 417,
      "max": [
        1.0000003576278687,
        1.0,
        7.762067794799805
      ],
      "min": [
        -0.9999996423721313,
        -1.0,
        6.53661584854126
      ],
      "type": "VEC3"
    },
    {
      "bufferView": 2,
      "byteOffset": 271140,
      "componentType": 5126,
      "count": 417,
      "type": "VEC3"
    },
    {
      "bufferView": 3,
      "byteOffset": 177424,
      "componentType": 5126,
      "count": 417,
      "type": "VEC4"
    },
    {
      "bufferView": 1,
      "byteOffset": 266136,
      "componentType": 5126,
      "count": 417,
      "type": "VEC2"
    },
    {
      "bufferView": 1,
      "byteOffset": 269472,
      "componentType": 5126,
      "count": 417,
      "type": "VEC2"
    },
    {
      "bufferView": 1,
      "byteOffset": 272808,
      "componentType": 5126,
      "count": 417,
      "type": "VEC2"
    },
    {
      "bufferView": 0,
      "byteOffset": 177216,
      "componentType": 5125,
      "count": 1434,
      "type": "SCALAR"
    }
  ],
  "asset": {
    "generator": "fab-model-conversion",
    "version": "2.0"
  },
  "bufferViews": [
    {
      "buffer": 0,
      "byteLength": 182952,
      "target": 34963
    },
    {
      "buffer": 0,
      "byteLength": 276144,
      "byteOffset": 182952,
      "byteStride": 8,
      "target": 34962
    },
    {
      "buffer": 0,
      "byteLength": 276144,
      "byteOffset": 459096,
      "byteStride": 12,
      "target": 34962
    },
    {
      "buffer": 0,
      "byteLength": 184096,
      "byteOffset": 735240,
      "byteStride": 16,
      "target": 34962
    }
  ],
  "buffers": [
    {
      "byteLength": 919336,
      "uri": "scene.bin"
    }
  ],
  "extensionsUsed": [
    "KHR_materials_clearcoat",
    "KHR_materials_specular"
  ],
  "images": [
    {
      "uri": "textures/T_Flashlight_baseColor.png"
    },
    {
      "uri": "textures/T_Flashlight_metallicRoughness.png"
    },
    {
      "uri": "textures/T_Flashlight_normal.png"
    }
  ],
  "materials": [
    {
      "alphaMode": "BLEND",
      "extensions": {
        "KHR_materials_clearcoat": {
          "clearcoatFactor": 0.28997417918364254,
          "clearcoatNormalTexture": {
            "index": 2
          },
          "clearcoatRoughnessFactor": 0.7212925562608193,
          "clearcoatRoughnessTexture": {
            "index": 1
          }
        },
        "KHR_materials_specular": {
          "specularColorFactor": [
            1.0,
            1.0,
            1.0
          ],
          "specularFactor": 0.4998047410049718
        }
      },
      "name": "T_Flashlight",
      "normalTexture": {
        "index": 2
      },
      "occlusionTexture": {
        "index": 1
      },
      "pbrMetallicRoughness": {
        "baseColorTexture": {
          "index": 0
        },
        "metallicRoughnessTexture": {
          "index": 1
        }
      }
    }
  ],
  "meshes": [
    {
      "name": "FL_Neck_1_T_Flashlight_0",
      "primitives": [
        {
          "attributes": {
            "NORMAL": 1,
            "POSITION": 0,
            "TANGENT": 2,
            "TEXCOORD_0": 3,
            "TEXCOORD_1": 4,
            "TEXCOORD_2": 5
          },
          "indices": 6,
          "material": 0,
          "mode": 4
        }
      ]
    },
    {
      "name": "FL_Neck_2_T_Flashlight_0",
      "primitives": [
        {
          "attributes": {
            "NORMAL": 8,
            "POSITION": 7,
            "TANGENT": 9,
            "TEXCOORD_0": 10,
            "TEXCOORD_1": 11,
            "TEXCOORD_2": 12
          },
          "indices": 13,
          "material": 0,
          "mode": 4
        }
      ]
    },
    {
      "name": "FL_Handle_T_Flashlight_0",
      "primitives": [
        {
          "attributes": {
            "NORMAL": 15,
            "POSITION": 14,
            "TANGENT": 16,
            "TEXCOORD_0": 17,
            "TEXCOORD_1": 18,
            "TEXCOORD_2": 19
          },
          "indices": 20,
          "material": 0,
          "mode": 4
        }
      ]
    },
    {
      "name": "FL_End_1_T_Flashlight_0",
      "primitives": [
        {
          "attributes": {
            "NORMAL": 22,
            "POSITION": 21,
            "TANGENT": 23,
            "TEXCOORD_0": 24,
            "TEXCOORD_1": 25,
            "TEXCOORD_2": 26
          },
          "indices": 27,
          "material": 0,
          "mode": 4
        }
      ]
    },
    {
      "name": "FL_Clip_T_Flashlight_0",
      "primitives": [
        {
          "attributes": {
            "NORMAL": 29,
            "POSITION": 28,
            "TANGENT": 30,
            "TEXCOORD_0": 31,
            "TEXCOORD_1": 32,
            "TEXCOORD_2": 33
          },
          "indices": 34,
          "material": 0,
          "mode": 4
        }
      ]
    },
    {
      "name": "FL_Head_T_Flashlight_0",
      "primitives": [
        {
          "attributes": {
            "NORMAL": 36,
            "POSITION": 35,
            "TANGENT": 37,
            "TEXCOORD_0": 38,
            "TEXCOORD_1": 39,
            "TEXCOORD_2": 40
          },
          "indices": 41,
          "material": 0,
          "mode": 4
        }
      ]
    },
    {
      "name": "FL_End_2_T_Flashlight_0",
      "primitives": [
        {
          "attributes": {
            "NORMAL": 43,
            "POSITION": 42,
            "TANGENT": 44,
            "TEXCOORD_0": 45,
            "TEXCOORD_1": 46,
            "TEXCOORD_2": 47
          },
          "indices": 48,
          "material": 0,
          "mode": 4
        }
      ]
    }
  ],
  "nodes": [
    {
      "children": [
        1
      ],
      "matrix": [
        1.0,
        0.0,
        0.0,
        0.0,
        0.0,
        2.220446049250313e-16,
        -1.0,
        0.0,
        0.0,
        1.0,
        2.220446049250313e-16,
        0.0,
        0.0,
        0.0,
        0.0,
        1.0
      ],
      "name": "Sketchfab_model"
    },
    {
      "children": [
        2
      ],
      "matrix": [
        0.009999999776482582,
        0.0,
        0.0,
        0.0,
        0.0,
        0.0,
        0.009999999776482582,
        0.0,
        0.0,
        -0.009999999776482582,
        0.0,
        0.0,
        0.0,
        0.0,
        0.0,
        1.0
      ],
      "name": "T_Flashlight.fbx"
    },
    {
      "children": [
        3,
        5,
        7,
        9,
        11,
        13,
        15
      ],
      "name": "RootNode"
    },
    {
      "children": [
        4
      ],
      "matrix": [
        100.0,
        0.0,
        0.0,
        0.0,
        0.0,
        -1.629206793918314e-05,
        -99.99999999999868,
        0.0,
        0.0,
        99.99999999999868,
        -1.629206793918314e-05,
        0.0,
        0.0,
        0.0,
        0.0,
        1.0
      ],
      "name": "FL_Neck_1"
    },
    {
      "mesh": 0,
      "name": "FL_Neck_1_T_Flashlight_0"
    },
    {
      "children": [
        6
      ],
      "matrix": [
        100.0,
        0.0,
        0.0,
        0.0,
        0.0,
        -1.629206793918314e-05,
        -99.99999999999868,
        0.0,
        0.0,
        99.99999999999868,
        -1.629206793918314e-05,
        0.0,
        0.0,
        0.0,
        0.0,
        1.0
      ],
      "name": "FL_Neck_2"
    },
    {
      "mesh": 1,
      "name": "FL_Neck_2_T_Flashlight_0"
    },
    {
      "children": [
        8
      ],
      "matrix": [
        100.0,
        0.0,
        0.0,
        0.0,
        0.0,
        -1.629206793918314e-05,
        -99.99999999999868,
        0.0,
        0.0,
        99.99999999999868,
        -1.629206793918314e-05,
        0.0,
        0.0,
        0.0,
        0.0,
        1.0
      ],
      "name": "FL_Handle"
    },
    {
      "mesh": 2,
      "name": "FL_Handle_T_Flashlight_0"
    },
    {
      "children": [
        10
      ],
      "matrix": [
        100.0,
        0.0,
        0.0,
        0.0,
        0.0,
        -1.629206793918314e-05,
        -99.99999999999868,
        0.0,
        0.0,
        99.99999999999868,
        -1.629206793918314e-05,
        0.0,
        0.0,
        0.0,
        0.0,
        1.0
      ],
      "name": "FL_End_1"
    },
    {
      "mesh": 3,
      "name": "FL_End_1_T_Flashlight_0"
    },
    {
      "children": [
        12
      ],
      "matrix": [
        100.0,
        0.0,
        0.0,
        0.0,
        0.0,
        -1.629206793918314e-05,
        -99.99999999999868,
        0.0,
        0.0,
        99.99999999999868,
        -1.629206793918314e-05,
        0.0,
        0.0,
        0.0,
        0.0,
        1.0
      ],
      "name": "FL_Clip"
    },
    {
      "mesh": 4,
      "name": "FL_Clip_T_Flashlight_0"
    },
    {
      "children": [
        14
      ],
      "matrix": [
        100.0,
        0.0,
        0.0,
        0.0,
        0.0,
        -1.629206793918314e-05,
        -99.99999999999868,
        0.0,
        0.0,
        99.99999999999868,
        -1.629206793918314e-05,
        0.0,
        0.0,
        0.0,
        0.0,
        1.0
      ],
      "name": "FL_Head"
    },
    {
      "mesh": 5,
      "name": "FL_Head_T_Flashlight_0"
    },
    {
      "children": [
        16
      ],
      "matrix": [
        -2.6126317500712564e-07,
        -5.977004528045638,
        3.5625718924589103e-07,
        0.0,
        -9.737776556903516e-07,
        -3.5625714677671954e-07,
        -5.977004528045564,
        0.0,
        5.977004528045569,
        -2.61263233070446e-07,
        -9.737776397644123e-07,
        0.0,
        2.9802322387695313e-06,
        1.7763568394002505e-13,
        0.0,
        1.0
      ],
      "name": "FL_End_2"
    },
    {
      "mesh": 6,
      "name": "FL_End_2_T_Flashlight_0"
    }
  ],
  "samplers": [
    {
      "magFilter": 9729,
      "minFilter": 9987,
      "wrapS": 10497,
      "wrapT": 10497
    }
  ],
  "scene": 0,
  "scenes": [
    {
      "name": "Sketchfab_Scene",
      "nodes": [
        0
      ]
    }
  ],
  "textures": [
    {
      "sampler": 0,
      "source": 0
    },
    {
      "sampler": 0,
      "source": 1
    },
    {
      "sampler": 0,
      "source": 2
    }
  ]
}
